{
    "asset" : {
        "generator" : "Khronos glTF Blender I/O v1.7.33",
        "version" : "2.0"
    },
    "scene" : 0,
    "scenes" : [
        {
            "name" : "Scene",
            "nodes" : [
                0
            ]
        }
    ],
    "nodes" : [
        {
            "extras" : {
                "sparkar_optimization" : {
                    "InvertedReducePercentage" : 0.0
                },
                "spark_blender_addon" : 1
            },
            "mesh" : 0,
            "name" : "Villa"
        }
    ],
    "materials" : [
        {
            "doubleSided" : true,
            "name" : "Villa_mat",
            "pbrMetallicRoughness" : {
                "baseColorTexture" : {
                    "index" : 0
                },
                "metallicFactor" : 0
            }
        },
        {
            "alphaMode" : "BLEND",
            "doubleSided" : true,
            "name" : "Water_mat",
            "pbrMetallicRoughness" : {
                "baseColorFactor" : [
                    0.13279898464679718,
                    0.3438479006290436,
                    1,
                    1
                ],
                "metallicFactor" : 0,
                "roughnessFactor" : 0.15000000596046448
            }
        }
    ],
    "meshes" : [
        {
            "name" : "Cylinder.002",
            "primitives" : [
                {
                    "attributes" : {
                        "POSITION" : 0,
                        "NORMAL" : 1,
                        "TEXCOORD_0" : 2
                    },
                    "indices" : 3,
                    "material" : 0
                },
                {
                    "attributes" : {
                        "POSITION" : 4,
                        "NORMAL" : 5,
                        "TEXCOORD_0" : 6
                    },
                    "indices" : 7,
                    "material" : 1
                }
            ]
        }
    ],
    "textures" : [
        {
            "sampler" : 0,
            "source" : 0
        }
    ],
    "images" : [
        {
            "bufferView" : 4,
            "mimeType" : "image/jpeg",
            "name" : "sparkAR_villa_010_2"
        }
    ],
    "accessors" : [
        {
            "bufferView" : 0,
            "componentType" : 5126,
            "count" : 44768,
            "max" : [
                0.14933691918849945,
                0.2688983976840973,
                0.13723470270633698
            ],
            "min" : [
                -0.15082602202892303,
                -0.1734466254711151,
                -0.022436823695898056
            ],
            "type" : "VEC3"
        },
        {
            "bufferView" : 1,
            "componentType" : 5126,
            "count" : 44768,
            "type" : "VEC3"
        },
        {
            "bufferView" : 2,
            "componentType" : 5126,
            "count" : 44768,
            "type" : "VEC2"
        },
        {
            "bufferView" : 3,
            "componentType" : 5123,
            "count" : 46263,
            "type" : "SCALAR"
        },
        {
            "bufferView" : 5,
            "componentType" : 5126,
            "count" : 66,
            "max" : [
                0.1490316540002823,
                0.10185766220092773,
                -0.0007585901767015457
            ],
            "min" : [
                -0.15003685653209686,
                -0.2656807601451874,
                -0.022540871053934097
            ],
            "type" : "VEC3"
        },
        {
            "bufferView" : 6,
            "componentType" : 5126,
            "count" : 66,
            "type" : "VEC3"
        },
        {
            "bufferView" : 7,
            "componentType" : 5126,
            "count" : 66,
            "type" : "VEC2"
        },
        {
            "bufferView" : 8,
            "componentType" : 5123,
            "count" : 66,
            "type" : "SCALAR"
        }
    ],
    "bufferViews" : [
        {
            "buffer" : 0,
            "byteLength" : 537216,
            "byteOffset" : 0
        },
        {
            "buffer" : 0,
            "byteLength" : 537216,
            "byteOffset" : 537216
        },
        {
            "buffer" : 0,
            "byteLength" : 358144,
            "byteOffset" : 1074432
        },
        {
            "buffer" : 0,
            "byteLength" : 92526,
            "byteOffset" : 1432576
        },
        {
            "buffer" : 0,
            "byteLength" : 616826,
            "byteOffset" : 1525104
        },
        {
            "buffer" : 0,
            "byteLength" : 792,
            "byteOffset" : 2141932
        },
        {
            "buffer" : 0,
            "byteLength" : 792,
            "byteOffset" : 2142724
        },
        {
            "buffer" : 0,
            "byteLength" : 528,
            "byteOffset" : 2143516
        },
        {
            "buffer" : 0,
            "byteLength" : 132,
            "byteOffset" : 2144044
        }
    ],
    "samplers" : [
        {
            "magFilter" : 9729,
            "minFilter" : 9987
        }
    ],
    "buffers" : [
        {
            "byteLength" : 2144176,
            "uri" : "data:application/octet-stream;base64,"
        }
    ]
}
